<?xml version="1.0" encoding="utf-8"?>
<!-- Generator: Adobe Illustrator 15.1.0, SVG Export Plug-In . SVG Version: 6.00 Build 0)  -->
<!DOCTYPE svg PUBLIC "-//W3C//DTD SVG 1.1//EN" "http://www.w3.org/Graphics/SVG/1.1/DTD/svg11.dtd">
<svg version="1.1" id="Layer_1" xmlns="http://www.w3.org/2000/svg" xmlns:xlink="http://www.w3.org/1999/xlink" x="0px" y="0px"
	 width="56.69px" height="56.69px" viewBox="0 0 56.69 56.69" enable-background="new 0 0 56.69 56.69" xml:space="preserve">
<path fill="#C2D2C4" d="M28.345-0.002c-15.655,0-28.347,12.691-28.347,28.347S12.69,56.691,28.345,56.691
	C44,56.691,56.691,44,56.691,28.345S44-0.002,28.345-0.002z M28.678,48.143c-11.115,0-20.125-9.01-20.125-20.125
	c0-11.115,9.01-20.125,20.125-20.125s20.125,9.01,20.125,20.125C48.803,39.133,39.793,48.143,28.678,48.143z"/>
<path fill="#C2D2C4" d="M34.6,21.767l8.748,14.581c-3.365,8.322-12.332,8.669-12.332,8.669v-7.996l-17.417-0.002
	c0,0-4.396-6.149-1.25-14.334l7.25,4l8.747-15.25c0,0,8.795-0.337,12.92,5.917L34.6,21.767z"/>
</svg>
